<?xml version="1.0" encoding="UTF-8"?>
<svg version="1.1" xmlns="http://www.w3.org/2000/svg" width="256" height="256">
<path d="M0 0 C22.39664678 19.97361775 36.2528072 49.04203561 38 79 C39.3445829 112.53308255 27.69623695 141.91438349 5.6171875 166.671875 C-15.03587584 188.49630612 -44.351092 200.93145326 -74.21484375 202.12890625 C-107.90198541 202.69730572 -137.24533376 189.89371664 -161.4375 167 C-183.4085903 144.50135527 -194.45608991 113.88773033 -194.15234375 82.703125 C-192.82568969 50.45522636 -179.08867548 22.18013067 -156.16796875 -0.203125 C-112.17214433 -40.25294665 -44.07323246 -38.81287891 0 0 Z " fill="#121620" transform="translate(206,42)"/>
<path d="M0 0 C45.9412155 0 45.9412155 0 55.33984375 9.08984375 C59.98439498 14.43380975 61.65953544 19.40658925 61.3125 26.48828125 C60.28326072 34.76079195 57.07813507 40.30926255 51 46 C46.78125 49 46.78125 49 44 49 C44 49.66 44 50.32 44 51 C44.969375 51.04125 45.93875 51.0825 46.9375 51.125 C52.86458337 52.00264115 57.94763898 55.42239019 61.6484375 60.0703125 C66.77772695 68.105211 66.93907775 76.20974553 65.64453125 85.5703125 C63.58446762 93.28518166 57.89705748 99.70173533 51.10546875 103.70703125 C33.90424834 111.69742413 22.91993617 108 0 108 C0 72.36 0 36.72 0 0 Z " fill="#FC6A9A" transform="translate(137,71)"/>
<path d="M0 0 C18.15 0 36.3 0 55 0 C55 3.63 55 7.26 55 11 C41.14 11 27.28 11 13 11 C13 22.88 13 34.76 13 47 C25.87 47 38.74 47 52 47 C52 50.96 52 54.92 52 59 C39.13 59 26.26 59 13 59 C13 71.21 13 83.42 13 96 C27.52 96 42.04 96 57 96 C57 99.96 57 103.92 57 108 C38.19 108 19.38 108 0 108 C0 72.36 0 36.72 0 0 Z " fill="#F86898" transform="translate(65,71)"/>
<path d="M0 0 C29.22222222 0 29.22222222 0 37 7 C40.94522344 12.29490514 41.90152562 16.46393923 41 23 C39.66047357 29.55411144 36.49906272 33.30550775 31 37 C21.57773859 41.82603633 10.04051022 40 0 40 C0 26.8 0 13.6 0 0 Z " fill="#181823" transform="translate(149,128)"/>
<path d="M0 0 C25.23296526 -0.37382171 25.23296526 -0.37382171 32 5 C36.10866417 10.63816689 35.73745516 16.27813858 35 23 C32.64284303 28.50003294 28.32419551 31.51140955 23 34 C18.31091976 35.3662428 13.52610358 35.11176229 8.6875 35.0625 C4.3871875 35.0315625 4.3871875 35.0315625 0 35 C0 23.45 0 11.9 0 0 Z " fill="#171823" transform="translate(149,82)"/>
</svg>
